<svg id="Layer_1" enable-background="new 0 0 128 128" height="512" viewBox="0 0 128 128" width="512" xmlns="http://www.w3.org/2000/svg"><g><path d="m123.395 107.636h-8.995v-58.525c0-3.859-3.141-7-7-7h-8.075l-3.386-2.191c-1.529-.989-2.163-2.941-1.508-4.642l1.479-3.836c.72-1.866.448-3.945-.727-5.562-1.176-1.618-3.067-2.507-5.066-2.412l-4.105.222c-1.801.108-3.479-1.107-3.949-2.869l-1.058-3.973c-.515-1.933-1.957-3.455-3.858-4.072-1.902-.617-3.965-.234-5.516 1.026l-3.19 2.593c-1.416 1.148-3.468 1.148-4.882 0l-3.191-2.593c-1.552-1.261-3.616-1.644-5.516-1.026-1.901.617-3.344 2.14-3.857 4.071l-1.06 3.975c-.468 1.76-2.121 2.969-3.948 2.868l-4.105-.222c-2.006-.093-3.892.794-5.066 2.412-1.175 1.617-1.446 3.696-.727 5.562l1.479 3.838c.655 1.699.021 3.651-1.508 4.641l-3.386 2.191h-8.075c-3.859 0-7 3.141-7 7v58.525h-8.995c-.553 0-1 .447-1 1v3.934c0 3.83 3.115 6.945 6.945 6.945h102.898c3.831 0 6.947-3.115 6.947-6.945v-3.934c.001-.554-.446-1.001-.999-1.001z" fill="#e6e7e8"/><g><path d="m103.4 39.11h-8.394c2.8 1.971 2.752 6.177-.157 8.06l-3.452 2.234c-1.935 1.252-2.727 3.69-1.898 5.841l1.48 3.836c1.271 3.296-1.279 6.806-4.806 6.616l-1.025-.055 7.743 16.604c.245.526-.217 1.105-.784.982l-12.603-2.73-6.009 11.409c-.27.513-1.011.495-1.256-.03l-9.263-19.864c-.644-.132-1.305-.132-1.949 0l-9.263 19.864c-.245.526-.986.544-1.256.03l-6.009-11.409-12.603 2.73c-.567.123-1.029-.456-.784-.982l7.742-16.604-1.025.055c-3.527.19-6.078-3.32-4.806-6.616l1.48-3.836c.83-2.151.037-4.589-1.898-5.841l-3.452-2.234c-2.91-1.883-2.957-6.089-.157-8.06h-8.394c-3.314 0-6 2.686-6 6v59.526h94.798v-59.526c0-3.313-2.686-6-6-6z" fill="#0089ef"/><path d="m100.372 47.948h-6.724l-2.252 1.457c-1.935 1.252-2.727 3.69-1.898 5.841l1.48 3.836c1.271 3.296-1.279 6.806-4.806 6.616l-1.025-.055 7.743 16.604c.245.526-.217 1.105-.784.982l-12.603-2.73-6.009 11.409c-.27.513-1.011.495-1.256-.03l-9.263-19.864c-.644-.132-1.305-.132-1.949 0l-9.263 19.864c-.245.526-.986.544-1.256.03l-6.009-11.409-12.603 2.73c-.567.123-1.029-.456-.784-.982l7.742-16.604-1.025.055c-3.527.19-6.078-3.32-4.806-6.616l1.48-3.836c.83-2.151.037-4.589-1.898-5.841l-2.252-1.457h-6.724c-1.105 0-2 .895-2 2v54.689h80.745v-54.689c-.001-1.105-.896-2-2.001-2z" fill="#d4fbff"/><path d="m21.628 101.636h80.745v3h-80.745z" fill="#fff"/><path d="m4.605 104.636v3.933c0 3.283 2.662 5.945 5.945 5.945h102.898c3.284 0 5.946-2.662 5.946-5.945v-3.933z" fill="#0089ef"/><path d="m4.605 104.636v3.933c0 3.283 2.662 5.945 5.945 5.945h102.898c3.284 0 5.946-2.662 5.946-5.945v-3.933z" fill="#0089ef"/><path d="m42.949 104.636v1.991c0 1.662 1.347 3.009 3.009 3.009h32.083c1.662 0 3.01-1.348 3.01-3.009v-1.991z" fill="#6dc9f7"/><g><g fill="#fa759e"><path d="m85.147 65.643-3.081-.166c-2.302-.124-4.376 1.382-4.969 3.61l-1.058 3.973c-.909 3.413-5.035 4.754-7.777 2.527l-3.192-2.593c-.626-.508-1.348-.828-2.096-.981l9.263 19.863c.245.526.986.544 1.256.03l6.009-11.409 12.603 2.731c.567.123 1.029-.456.784-.982z"/><path d="m58.929 72.994-3.192 2.593c-2.742 2.227-6.868.886-7.777-2.527l-1.058-3.973c-.593-2.228-2.667-3.734-4.969-3.61l-3.081.166-7.742 16.604c-.245.526.217 1.105.784.982l12.603-2.731 6.009 11.409c.27.513 1.011.495 1.256-.03l9.263-19.863c-.748.152-1.47.472-2.096.98z"/></g><path d="m65.071 13.17 3.192-2.593c2.742-2.227 6.868-.887 7.777 2.527l1.058 3.974c.593 2.228 2.667 3.734 4.969 3.61l4.106-.222c3.527-.191 6.078 3.32 4.806 6.616l-1.48 3.837c-.83 2.151-.037 4.589 1.898 5.841l3.452 2.234c2.966 1.919 2.966 6.258 0 8.177l-3.452 2.234c-1.935 1.252-2.727 3.69-1.898 5.841l1.48 3.837c1.271 3.296-1.279 6.806-4.806 6.616l-4.106-.222c-2.302-.124-4.376 1.382-4.969 3.61l-1.058 3.974c-.909 3.413-5.035 4.754-7.777 2.527l-3.192-2.593c-1.789-1.454-4.353-1.454-6.142 0l-3.192 2.593c-2.742 2.227-6.868.887-7.777-2.527l-1.058-3.974c-.593-2.228-2.667-3.734-4.969-3.61l-4.106.222c-3.527.191-6.078-3.32-4.806-6.616l1.48-3.837c.83-2.151.037-4.589-1.898-5.841l-3.452-2.234c-2.966-1.919-2.966-6.258 0-8.177l3.452-2.234c1.935-1.252 2.727-3.69 1.898-5.841l-1.48-3.837c-1.271-3.296 1.279-6.806 4.806-6.616l4.106.222c2.302.124 4.376-1.382 4.969-3.61l1.058-3.974c.909-3.413 5.035-4.754 7.777-2.527l3.192 2.593c1.789 1.454 4.353 1.454 6.142 0z" fill="#6dc9f7"/><circle cx="62" cy="43.082" fill="#ffd7e5" r="23"/></g><g><g><path d="m57.767 54.467c-.027 0-.053-.001-.08-.001-.838-.023-1.626-.405-2.162-1.049l-7.298-8.757c-1.032-1.239-.865-3.079.374-4.111 1.238-1.032 3.079-.865 4.111.373l5.176 6.212 13.505-14.506c1.097-1.18 2.945-1.247 4.125-.147 1.18 1.099 1.246 2.945.147 4.125l-15.763 16.93c-.551.595-1.326.931-2.135.931z" fill="#0089ef"/><g fill="#3a2c60"><path d="m21.627 94.622c.553 0 1-.447 1-1v-9.748c0-.553-.447-1-1-1s-1 .447-1 1v9.748c0 .552.447 1 1 1z"/><path d="m119.395 103.636h-8.994v-58.525c0-3.859-3.141-7-7-7h-8.075l-3.386-2.191c-1.529-.989-2.164-2.941-1.508-4.642l1.479-3.836c.72-1.866.448-3.945-.727-5.562-1.175-1.618-3.069-2.513-5.066-2.412l-4.105.222c-1.815.089-3.48-1.107-3.949-2.868l-1.058-3.974c-.515-1.932-1.956-3.454-3.857-4.072-1.903-.618-3.965-.234-5.518 1.026l-3.191 2.593c-1.413 1.148-3.465 1.148-4.88 0l-3.191-2.593c-1.551-1.261-3.611-1.642-5.516-1.027-1.901.618-3.344 2.141-3.859 4.073l-1.058 3.974c-.468 1.761-2.11 2.985-3.948 2.868l-4.106-.222c-1.985-.086-3.89.794-5.064 2.412-1.176 1.617-1.447 3.696-.728 5.562l1.479 3.837c.655 1.7.021 3.652-1.509 4.642l-3.386 2.191h-8.074c-3.859 0-7 3.141-7 7v58.525h-8.995c-.553 0-1 .447-1 1v3.934c0 3.829 3.115 6.944 6.945 6.944h102.898c3.83 0 6.946-3.115 6.946-6.944v-3.934c.001-.554-.447-1.001-.999-1.001zm-10.994-58.525v58.525h-5.025v-53.688c0-1.654-1.346-3-3-3h-3.762c.928-1.056 1.461-2.417 1.461-3.865 0-1.067-.293-2.085-.815-2.972h6.142c2.755 0 4.999 2.243 4.999 5zm-75.255-7.512c2.32-1.501 3.283-4.462 2.288-7.04l-1.479-3.838c-.474-1.229-.295-2.601.479-3.667.775-1.065 2.014-1.654 3.34-1.589l4.106.222c2.74.125 5.278-1.681 5.989-4.353l1.057-3.973c.34-1.274 1.291-2.278 2.545-2.686 1.253-.407 2.613-.154 3.636.678l3.191 2.593c2.146 1.743 5.26 1.741 7.403 0l3.191-2.593c1.023-.833 2.383-1.087 3.637-.677 1.254.407 2.204 1.41 2.543 2.684l1.059 3.975c.711 2.669 3.214 4.47 5.989 4.352l4.105-.222c1.326-.085 2.565.522 3.341 1.59.774 1.065.953 2.437.479 3.667l-1.479 3.836c-.996 2.579-.034 5.54 2.287 7.041l3.452 2.234c1.106.716 1.768 1.931 1.768 3.249 0 1.317-.661 2.532-1.768 3.248l-3.452 2.234c-2.32 1.502-3.282 4.463-2.287 7.04l1.479 3.838c.474 1.229.295 2.601-.479 3.666-.775 1.066-2.015 1.655-3.341 1.59l-4.105-.222c-2.738-.125-5.277 1.682-5.99 4.353l-1.058 3.974c-.339 1.273-1.289 2.276-2.542 2.685-1.255.406-2.613.154-3.638-.677l-3.191-2.594c-1.072-.871-2.387-1.307-3.701-1.307s-2.63.436-3.702 1.307l-3.191 2.594c-1.022.83-2.383 1.083-3.636.677-1.254-.407-2.205-1.411-2.544-2.685l-1.058-3.974c-.711-2.672-3.262-4.495-5.989-4.353l-4.106.222c-1.326.07-2.564-.522-3.34-1.589-.774-1.066-.953-2.438-.479-3.668l1.479-3.837c.994-2.577.032-5.538-2.288-7.04l-3.452-2.234c-1.106-.716-1.767-1.931-1.767-3.248 0-1.318.66-2.533 1.767-3.249zm6.36 29.01 2.482-.134c1.818-.095 3.48 1.107 3.948 2.868l1.059 3.975c.515 1.932 1.957 3.454 3.858 4.072 1.903.618 3.964.234 5.516-1.026l2.455-1.996-7.714 16.542-5.729-10.878c-.176-.333-.52-.534-.885-.534-.07 0-.141.008-.212.022l-12.015 2.604zm44.987 0 7.236 15.516-12.015-2.605c-.441-.091-.887.115-1.097.512l-5.727 10.877-7.713-16.539 2.455 1.994c1.063.863 2.366 1.315 3.693 1.315.609 0 1.225-.096 1.823-.29 1.901-.618 3.343-2.141 3.857-4.072l1.057-3.973c.47-1.761 2.121-2.978 3.95-2.869zm-68.893-21.498c0-2.757 2.243-5 5-5h6.141c-.521.887-.814 1.904-.814 2.972 0 1.448.532 2.809 1.46 3.865h-3.757c-1.654 0-3 1.346-3 3v29.341c0 .553.447 1 1 1s1-.447 1-1v-29.341c0-.552.448-1 1-1h6.426l2.004 1.297c1.529.989 2.164 2.941 1.509 4.642l-1.479 3.836c-.72 1.866-.448 3.945.728 5.562 1.053 1.45 2.681 2.304 4.446 2.403l-7.058 15.136c-.275.59-.193 1.271.212 1.78.405.508 1.048.74 1.69.603l11.86-2.57 5.654 10.738c.297.562.871.907 1.504.907h.044c.65-.017 1.226-.394 1.5-.982l9.03-19.366c.201-.015.4-.015.601 0l9.031 19.365c.274.59.85.967 1.5.983h.043c.634 0 1.207-.345 1.504-.908l5.654-10.737 11.862 2.57c.631.139 1.284-.094 1.689-.604.405-.508.486-1.19.212-1.779l-7.059-15.136c1.765-.098 3.395-.953 4.448-2.403 1.175-1.617 1.446-3.696.727-5.562l-1.479-3.838c-.655-1.699-.021-3.65 1.508-4.641l2.004-1.297h6.432c.552 0 1 .448 1 1v53.688h-78.747v-5.181c0-.553-.447-1-1-1s-1 .447-1 1v5.181h-5.03zm102.795 63.459c0 2.727-2.219 4.944-4.946 4.944h-102.899c-2.727 0-4.945-2.218-4.945-4.944v-2.934h112.79z"/><path d="m62 67.082c13.233 0 24-10.767 24-24s-10.767-24-24-24-24 10.767-24 24 10.767 24 24 24zm0-46c12.131 0 22 9.869 22 22s-9.869 22-22 22-22-9.869-22-22 9.869-22 22-22z"/><path d="m54.757 54.057c.722.864 1.78 1.378 2.894 1.407.013.001.104.002.117.002 1.084 0 2.129-.455 2.867-1.248l15.763-16.931c1.473-1.581 1.385-4.065-.196-5.538-.767-.714-1.76-1.086-2.812-1.049-1.046.037-2.015.479-2.728 1.245l-12.731 13.677-4.45-5.341c-.671-.804-1.614-1.299-2.656-1.394-1.049-.095-2.061.223-2.863.893-1.66 1.382-1.886 3.858-.503 5.521zm-5.516-12.741c.348-.29.777-.445 1.225-.445.059 0 .118.003.177.009.511.046.973.288 1.301.683l5.177 6.212c.185.22.454.352.741.359.281-.011.564-.108.759-.318l13.505-14.506c.35-.375.824-.592 1.336-.61.508.006 1.001.164 1.377.514.774.722.817 1.938.097 2.712l-15.764 16.929c-.362.389-.874.611-1.404.611l-.054-.001c-.55-.015-1.068-.266-1.421-.689l-7.298-8.756c-.677-.814-.567-2.026.246-2.704z"/></g></g></g></g></g></svg>