<svg height="512pt" viewBox="0 -65 512 512" width="512pt" xmlns="http://www.w3.org/2000/svg"><path d="m319.519531 137.070312h91.519531c4.503907 0 8.695313 2.292969 11.125 6.082032l37.414063 58.347656c1.886719 2.941406 4.855469 5.015625 8.265625 5.769531l26.300781 7.164063c6.046875 1.339844 10.355469 6.707031 10.355469 12.902344v89.507812c0 7.296875-5.914062 13.210938-13.214844 13.210938h-171.765625zm0 0" fill="#ff4755"/><path d="m494.144531 214.433594-26.300781-7.167969c-3.410156-.753906-6.378906-2.828125-8.265625-5.765625l-37.414063-58.351562c-2.429687-3.789063-6.621093-6.078126-11.125-6.078126h-37.429687l55.71875 85.179688c1.886719 2.9375 4.855469 5.011719 8.265625 5.765625l26.300781 7.167969c6.046875 1.339844 10.355469 6.703125 10.355469 12.902344v81.96875h17.035156c7.300782 0 13.214844-5.917969 13.214844-13.214844v-89.507813c0-6.195312-4.308594-11.558593-10.355469-12.898437zm0 0" fill="#e61f2d"/><path d="m7.5 316.640625c0 7.410156 6.003906 13.414063 13.414062 13.414063h308.25v-72.390626h-321.664062zm0 0" fill="#8ebac5"/><path d="m299.164062 257.664062h30v72.390626h-30zm0 0" fill="#7ca1b1"/><path d="m329.164062 266.640625h-321.664062v-250.152344c0-4.964843 4.023438-8.988281 8.988281-8.988281h303.6875c4.964844 0 8.988281 4.023438 8.988281 8.988281zm0 0" fill="#eab765"/><path d="m320.179688 7.5h-30c4.960937 0 8.984374 4.023438 8.984374 8.988281v250.152344h30v-250.152344c0-4.964843-4.023437-8.988281-8.984374-8.988281zm0 0" fill="#d9ab5e"/><path d="m433.855469 212.753906-25.589844-42.234375c-1.15625-1.90625-3.21875-3.070312-5.445313-3.070312h-44.953124c-3.515626 0-6.367188 2.851562-6.367188 6.367187v42.238282c0 3.515624 2.851562 6.367187 6.367188 6.367187h70.542968c4.960938 0 8.015625-5.425781 5.445313-9.667969zm0 0" fill="#2dd2e3"/><path d="m504.5 316.839844v-19.53125h-25.054688c-7.507812 0-13.597656 6.089844-13.597656 13.597656v19.148438h25.4375c7.300782 0 13.214844-5.917969 13.214844-13.214844zm0 0" fill="#fff156"/><path d="m94.324219 375.238281c-24.914063 0-45.1875-20.269531-45.1875-45.183593 0-24.917969 20.273437-45.1875 45.1875-45.1875 24.917969 0 45.1875 20.269531 45.1875 45.1875 0 24.914062-20.269531 45.183593-45.1875 45.183593zm0 0" fill="#384949"/><path d="m94.324219 347.21875c-9.464844 0-17.164063-7.699219-17.164063-17.164062 0-9.464844 7.699219-17.164063 17.164063-17.164063 9.464843 0 17.164062 7.699219 17.164062 17.164063 0 9.464843-7.699219 17.164062-17.164062 17.164062zm0 0" fill="#deecf1"/><path d="m397.394531 375.238281c-24.917969 0-45.1875-20.269531-45.1875-45.183593 0-24.917969 20.269531-45.1875 45.1875-45.1875 24.914063 0 45.1875 20.269531 45.1875 45.1875 0 24.914062-20.273437 45.183593-45.1875 45.183593zm0 0" fill="#384949"/><path d="m397.394531 347.21875c-9.464843 0-17.164062-7.699219-17.164062-17.164062 0-9.464844 7.699219-17.164063 17.164062-17.164063 9.464844 0 17.164063 7.699219 17.164063 17.164063 0 9.464843-7.699219 17.164062-17.164063 17.164062zm0 0" fill="#deecf1"/><path d="m130.164062 126.4375 30.078126-23.832031c2.765624-2.191407 6.671874-2.191407 9.4375 0l30.078124 23.832031c4.976563 3.945312 12.3125.398438 12.3125-5.957031v-112.980469h-94.21875v112.984375c0 6.351563 7.335938 9.898437 12.3125 5.953125zm0 0" fill="#ff8709"/><path d="m288.667969 184.238281h-57.667969c-9.914062 0-9.929688 15 0 15h57.667969c9.914062 0 9.929687-15 0-15zm0 0"/><path d="m288.667969 220.738281h-57.667969c-9.914062 0-9.929688 15 0 15h57.667969c9.914062 0 9.929687-15 0-15zm0 0"/><path d="m15 207.421875v-190.933594c0-.820312.667969-1.488281 1.488281-1.488281h93.863281v105.480469c0 12.640625 14.59375 19.664062 24.472657 11.832031l30.074219-23.828125c.035156-.027344.085937-.027344.121093-.003906l30.078125 23.835937c9.882813 7.824219 24.472656.808594 24.472656-11.835937v-105.480469h100.609376c.816406 0 1.484374.667969 1.484374 1.488281v26.027344c0 9.914063 15 9.929687 15 0v-26.027344c0-9.09375-7.394531-16.488281-16.484374-16.488281h-303.691407c-9.09375 0-16.488281 7.394531-16.488281 16.488281v190.933594c0 9.914063 15 9.929687 15 0zm189.582031-86.898437c-.195312.222656.761719.648437-30.246093-23.796876-5.519532-4.375-13.230469-4.375-18.75 0l-30.101563 23.867188c-.246094-.007812-.070313-35.25-.132813-105.59375h79.21875zm0 0"/><path d="m94.324219 305.390625c-13.597657 0-24.664063 11.0625-24.664063 24.664063 0 13.601562 11.0625 24.664062 24.664063 24.664062 13.601562 0 24.664062-11.0625 24.664062-24.664062 0-13.601563-11.0625-24.664063-24.664062-24.664063zm0 34.328125c-12.789063 0-12.773438-19.328125 0-19.328125 12.792969 0 12.777343 19.328125 0 19.328125zm0 0"/><path d="m357.867188 229.921875h70.542968c5 0 9.628906-2.707031 12.082032-7.0625 2.453124-4.355469 2.367187-9.714844-.222657-13.992187l-25.589843-42.238282c-2.5-4.117187-7.042969-6.679687-11.859376-6.679687h-44.953124c-7.644532 0-13.867188 6.222656-13.867188 13.867187v42.238282c0 7.644531 6.222656 13.867187 13.867188 13.867187zm1.132812-54.972656h43.179688l24.21875 39.972656h-67.398438zm0 0"/><path d="m495.960938 207.15625-26.144532-7.125c-.117187-.03125-.230468-.0625-.351562-.085938-1.484375-.328124-2.753906-1.214843-3.574219-2.496093l-37.414063-58.347657c-3.828124-5.96875-10.347656-9.53125-17.4375-9.53125h-74.375v-57.054687c0-9.914063-15-9.933594-15 0v186.625h-306.664062v-21.71875c0-9.914063-15-9.929687-15 0v79.21875c0 11.53125 9.382812 20.914063 20.914062 20.914063h21.257813c3.652344 25.511718 25.648437 45.1875 52.152344 45.1875 26.507812 0 48.503906-19.675782 52.15625-45.1875h198.757812c3.652344 25.511718 25.648438 45.1875 52.15625 45.1875 26.503907 0 48.503907-19.675782 52.152344-45.1875h41.738281c11.421875 0 20.714844-9.292969 20.714844-20.714844v-89.503906c0-9.726563-6.585938-17.996094-16.039062-20.179688zm-84.921876-62.585938c1.957032 0 3.753907.980469 4.8125 2.628907l37.414063 58.347656c2.9375 4.585937 7.464844 7.773437 12.761719 9l26.144531 7.125c.117187.03125.234375.058594.351563.085937 2.636718.582032 4.480468 2.878907 4.480468 5.578126v62.472656h-17.558594c-11.628906 0-21.09375 9.464844-21.09375 21.097656v11.648438h-8.800781c-3.652343-25.511719-25.648437-45.1875-52.15625-45.1875-26.503906 0-48.5 19.671874-52.152343 45.1875h-8.574219v-177.984376zm-396.039062 172.070313v-42.5h306.664062v48.414063h-175.183593c-3.652344-25.511719-25.648438-45.1875-52.15625-45.1875-26.503907 0-48.503907 19.671874-52.152344 45.1875h-21.257813c-3.261718 0-5.914062-2.652344-5.914062-5.914063zm79.324219 51.097656c-20.777344 0-37.6875-16.902343-37.6875-37.683593s16.90625-37.6875 37.6875-37.6875 37.6875 16.90625 37.6875 37.6875-16.90625 37.683593-37.6875 37.683593zm303.070312 0c-20.78125 0-37.6875-16.902343-37.6875-37.683593s16.90625-37.6875 37.6875-37.6875 37.6875 16.90625 37.6875 37.6875-16.90625 37.683593-37.6875 37.683593zm93.890625-45.183593h-17.933594v-11.648438c0-3.359375 2.734376-6.097656 6.09375-6.097656h17.554688v12.03125c0 3.152344-2.5625 5.714844-5.714844 5.714844zm0 0"/><path d="m397.394531 305.390625c-13.601562 0-24.664062 11.0625-24.664062 24.664063 0 13.601562 11.0625 24.664062 24.664062 24.664062 13.601563 0 24.664063-11.0625 24.664063-24.664062 0-13.601563-11.0625-24.664063-24.664063-24.664063zm0 34.328125c-12.792969 0-12.777343-19.328125 0-19.328125 12.792969 0 12.777344 19.328125 0 19.328125zm0 0"/></svg>